<?xml version="1.0" encoding="utf-8"?>
<!-- Generator: Adobe Illustrator 25.0.1, SVG Export Plug-In . SVG Version: 6.00 Build 0)  -->
<svg version="1.1" id="Layer_1" xmlns="http://www.w3.org/2000/svg" xmlns:xlink="http://www.w3.org/1999/xlink" x="0px" y="0px"
	 viewBox="0 0 960 560" style="enable-background:new 0 0 960 560;" xml:space="preserve">
<style type="text/css">
	.st0{fill:#D4E8C2;}
</style>
<g>
	<path class="st0" d="M856.6,528.3c-65.2-15.4-132-27.1-198.8-34.8c-42.8-4.9-77-7.2-107.6-7.2c-20.4,0-37.1,1-54.9,2
		c-19,1.1-38.6,2.2-64.3,2.2c-30.3,0-64.8-1.7-105.4-5c-5.4-0.5-10.9-0.9-16.4-1.4c-27-2.4-54.8-4.8-84.2-4.8
		c-49.5,0-93.1,7.1-137.2,22.3c-13.6,4.7-27,10.1-40.1,16.2c29.5-48.7,46.6-98.5,50.7-148.1c3.9-46-3.9-83.5-11.3-119.7
		c-8.8-42.5-17.8-86.4-8.7-145.2c4.8-31,13.9-61.4,27-90.5c19,10.1,39,18.2,59.5,24.1c28.2,8.2,57.9,12.3,88,12.3
		c12.2,0,21.6-0.7,27.8-1.1l1.8-0.1c10.1-0.7,20.5-1,31.1-1c56.1,0,111.1,9.8,164.2,19.3c51.7,9.2,100.5,17.9,149.1,17.9
		c56.5,0,103.1-11.9,146.5-37.4c12.2-7.1,23.8-15.2,34.7-24.1c9.5,47.5,8.3,93.2-3.6,135.8c-6.6,23.6-13.5,35.9-20.2,47.9
		c-6.8,12.1-13.2,23.6-17.8,45.3c-14.6,69.4,13.5,132.5,36.1,183.2C817.1,468.7,835.2,499.6,856.6,528.3z"/>
	<path d="M106.4,17c18.5,9.7,38,17.5,58,23.3c28.4,8.2,58.2,12.4,88.6,12.4c12.3,0,21.7-0.7,28-1.1l1.8-0.1c10-0.7,20.4-1,30.9-1
		c55.9,0,110.8,9.8,163.8,19.2c51.8,9.2,100.7,18,149.5,18c27,0,51.4-2.7,74.5-8.2c26-6.2,49.9-15.9,73-29.5
		c11.3-6.6,22.1-14.1,32.4-22.2c8.8,46.1,7.3,90.3-4.2,131.6c-6.5,23.4-13.4,35.6-20,47.4c-6.9,12.3-13.4,23.9-18,45.8
		c-6.6,31.3-5.3,63.7,4,99.3c8,30.8,20.9,59.7,32.3,85.2c13.8,30.9,30.9,60.4,50.9,88C788.2,510.3,723,499,658,491.5
		c-42.9-4.9-77.2-7.2-107.8-7.2c-20.5,0-37.2,1-55,2c-19,1.1-38.6,2.2-64.1,2.2c-30.3,0-64.7-1.6-105.2-5
		c-5.4-0.5-10.9-0.9-16.4-1.4c-27-2.4-54.9-4.8-84.4-4.8c-49.8,0-93.6,7.1-137.9,22.4c-11.6,4-23.2,8.6-34.5,13.6
		c27.7-47.2,43.7-95.5,47.8-143.5c3.9-46.3-3.9-83.9-11.4-120.3c-8.7-42.3-17.8-86-8.7-144.4C85.1,75,93.9,45.4,106.4,17
		 M104.5,11.5c-8.6,18.9-21.5,51.3-28,93c-17.1,109.6,28.3,165.6,20,265c-2.9,35.1-13.7,88.7-54,153c10.5-5.1,26.3-12.2,46-19
		c49.9-17.3,94.8-22.2,136.6-22.2c35.3,0,68.3,3.5,100.4,6.2c45.6,3.8,78.8,5.1,105.5,5.1c49.5,0,76.8-4.2,119.1-4.2
		c26.7,0,59.4,1.7,107.3,7.2c84.9,9.7,154.8,24.2,204,36c-17.2-22.6-38.6-54.7-57-96c-23-51.6-50.5-113.2-36-182
		c8.8-42,24.4-44.5,38-93c15.7-56.1,10-106.6,3-140c-6.7,5.6-19.5,15.7-37,26C725.1,74.4,676.6,83.7,627,83.7
		c-99.3,0-203.5-37.2-313.3-37.2c-10.3,0-20.7,0.3-31.2,1.1c-5.9,0.4-16.1,1.2-29.5,1.2c-22.1,0-52.9-2.2-87.5-12.2
		C137.9,28.5,116.8,18.1,104.5,11.5L104.5,11.5z"/>
</g>
</svg>
