<?xml version="1.0" encoding="utf-8"?>
<!-- Generator: Adobe Illustrator 25.0.0, SVG Export Plug-In . SVG Version: 6.00 Build 0)  -->
<svg version="1.1" id="Layer_1" xmlns="http://www.w3.org/2000/svg" xmlns:xlink="http://www.w3.org/1999/xlink" x="0px" y="0px"
	 viewBox="0 0 173.63 92.54" style="enable-background:new 0 0 173.63 92.54;" xml:space="preserve">
<style type="text/css">
	.st0{fill:#D4E8C2;stroke:#91D9F4;stroke-width:3;stroke-miterlimit:10;}
</style>
<path class="st0" d="M66.41,3.15c13,20,8,22,10.99,48.16c-10.89-5.13-21.8-10.86-33.21-16.15C31.5,29.27,18.88,23.24,11.41,18.18
	C21.73,28.75,37.86,39.35,52.64,50.8c14.79,11.45,28.23,23.76,33.14,37.75c5.92-12.82,19.19-24.26,34.16-34.7
	c14.98-10.44,31.67-19.87,44.46-28.67l-12.5,4l-12.5,4c-0.88,0.32-1.63,0.32-4.23,1.06c-2.6,0.74-7.06,2.23-15.35,5.51
	c-7.95,3.15-13.89,6.03-18.03,8.26s-6.48,3.8-7.25,4.33c0.84-4.19,1.86-7.19,4.86-24.17c2.79-15.81,8-25.03,8-25.03
	C87.41,7.15,76.41,7.15,66.41,3.15L66.41,3.15z"/>
</svg>
