<?xml version="1.0" encoding="utf-8"?>
<!-- Generator: Adobe Illustrator 25.0.1, SVG Export Plug-In . SVG Version: 6.00 Build 0)  -->
<svg version="1.1" id="Layer_1" xmlns="http://www.w3.org/2000/svg" xmlns:xlink="http://www.w3.org/1999/xlink" x="0px" y="0px"
	 viewBox="0 0 173.6 92.5" style="enable-background:new 0 0 173.6 92.5;" xml:space="preserve">
<style type="text/css">
	.st0{fill:#D4E8C2;stroke:#91D9F4;stroke-width:3;stroke-miterlimit:10;}
</style>
<path class="st0" d="M66.4,3.2c13,20,8,22,11,48.2c-10.9-5.1-21.8-10.9-33.2-16.1c-12.7-5.9-25.3-11.9-32.8-17
	c10.3,10.6,26.5,21.2,41.2,32.6c14.8,11.5,28.2,23.8,33.1,37.8c5.9-12.8,19.2-24.3,34.2-34.7s31.7-19.9,44.5-28.7l-12.5,4l-12.5,4
	c-0.9,0.3-1.6,0.3-4.2,1.1c-2.6,0.7-7.1,2.2-15.3,5.5c-7.9,3.2-13.9,6-18,8.3s-6.5,3.8-7.2,4.3c0.8-4.2,1.9-7.2,4.9-24.2
	c2.8-15.8,8-25,8-25C87.4,7.2,76.4,7.2,66.4,3.2L66.4,3.2z"/>
</svg>
