<?xml version="1.0" encoding="utf-8"?>
<!-- Generator: Adobe Illustrator 25.0.1, SVG Export Plug-In . SVG Version: 6.00 Build 0)  -->
<svg version="1.1" id="Layer_1" xmlns="http://www.w3.org/2000/svg" xmlns:xlink="http://www.w3.org/1999/xlink" x="0px" y="0px"
	 viewBox="0 0 170 192" style="enable-background:new 0 0 170 192;" xml:space="preserve">
<style type="text/css">
	.st0{fill:#F6FFEB;stroke:#91D9F4;stroke-width:6;stroke-miterlimit:10;}
	.st1{fill:#D4E8C2;stroke:#000000;stroke-width:3;stroke-miterlimit:10;}
</style>
<path class="st0" d="M165,73c-6.9-4.1-15.6-9.7-25-17c-11.3-8.7-19-16.2-24-21c-7.9-7.6-17.6-17.9-28-31c-6.8,9.8-12,17.5-15,22
	C62,42.3,47.8,64.1,35,72c-6.3,3.9-13,6-13,6c-3.6,1.1-6.7,1.7-9,2c8.2,19.7,8.6,35.5,7,47c-0.4,2.5-0.9,5.2-3,14
	c-3.2,13.3-7.2,28-12,44c4.3-4.6,11.5-11.1,22-16c3.4-1.6,15-6.7,35-7c14.6-0.2,24.8,2.4,46,8c22.3,5.9,41,11.1,55,15
	c-4.2-12-9-30.3-9-53C154,106.1,160.1,85.6,165,73z"/>
<path class="st1" d="M7-3"/>
<path class="st1" d="M76,218"/>
<path class="st1" d="M219,209"/>
<path class="st1" d="M-16,234"/>
</svg>
