<?xml version="1.0" encoding="utf-8"?>
<!-- Generator: Adobe Illustrator 25.0.0, SVG Export Plug-In . SVG Version: 6.00 Build 0)  -->
<svg version="1.1" id="Layer_1" xmlns="http://www.w3.org/2000/svg" xmlns:xlink="http://www.w3.org/1999/xlink" x="0px" y="0px"
	 viewBox="0 0 170 192" style="enable-background:new 0 0 170 192;" xml:space="preserve">
<style type="text/css">
	.st0{fill:#D4E8C2;stroke:#91D9F4;stroke-width:6;stroke-miterlimit:10;}
	.st1{fill:#D4E8C2;stroke:#000000;stroke-width:3;stroke-miterlimit:10;}
</style>
<path class="st0" d="M165,73c-6.92-4.12-15.55-9.72-25-17c-11.27-8.69-19.02-16.16-24-21c-7.86-7.64-17.64-17.93-28-31
	c-6.76,9.79-11.99,17.53-15,22C62.03,42.32,47.75,64.08,35,72c-6.28,3.9-13,6-13,6c-3.59,1.12-6.71,1.69-9,2
	c8.18,19.65,8.6,35.52,7,47c-0.35,2.54-0.86,5.21-3,14c-3.24,13.29-7.18,28.04-12,44c4.34-4.58,11.55-11.07,22-16
	c3.35-1.58,14.98-6.74,35-7c14.64-0.19,24.81,2.36,46,8c22.31,5.94,41.03,11.1,55,15c-4.17-12.01-8.96-30.34-9-53
	C153.96,106.11,160.13,85.57,165,73z"/>
<path class="st1" d="M7-3"/>
<path class="st1" d="M76,218"/>
<path class="st1" d="M219,209"/>
<path class="st1" d="M-16,234"/>
</svg>
