<?xml version="1.0" encoding="utf-8"?>
<!-- Generator: Adobe Illustrator 25.0.1, SVG Export Plug-In . SVG Version: 6.00 Build 0)  -->
<svg version="1.1" id="Layer_1" xmlns="http://www.w3.org/2000/svg" xmlns:xlink="http://www.w3.org/1999/xlink" x="0px" y="0px"
	 viewBox="0 0 768 768" style="enable-background:new 0 0 768 768;" xml:space="preserve">
<style type="text/css">
	.st0{fill:#FFFFFF;}
</style>
<g>
	<g>
		<path class="st0" d="M768,768c-256,0-512,0-768,0C0,512,0,256,0,0c256,0,512,0,768,0C768,256,768,512,768,768z M379.6,678.9
			c0-0.3,0-0.6,0-0.9c33.5,0,67,0.2,100.5-0.1c23.3-0.2,46.7-1.3,69.5-6.9c71-17.5,115.1-60.8,128.7-133.6c4.7-25.4,5.5-51,5.5-76.6
			c-0.1-68.3-0.5-136.6-1-205c-0.2-23.4-3.5-46.5-11-68.8C654.6,135.8,622.1,99.5,570,82.3c-28.3-9.4-57.7-11.9-87.3-12
			c-68.6-0.3-137.3-0.3-206,0c-28.7,0.1-57.2,2.6-84.8,11.7c-47.4,15.7-81.9,45.5-100.6,92.3c-11.2,28.1-15,57.7-15.2,87.6
			c-0.5,74.6-0.4,149.3,0,223.9c0.1,26,3.4,51.8,11.7,76.7c13.6,40.8,38.2,72.5,76.6,92.6c28.3,14.8,59,20.6,90.6,21.5
			C296.6,678.1,338.1,678.2,379.6,678.9z"/>
		<path d="M379.6,678.9c-41.5-0.6-83-0.8-124.4-2c-31.5-1-62.3-6.7-90.6-21.5c-38.4-20.1-63-51.9-76.6-92.6
			c-8.3-24.9-11.6-50.7-11.7-76.7c-0.4-74.6-0.4-149.3,0-223.9c0.2-29.9,4-59.5,15.2-87.6C110.1,127.5,144.7,97.7,192,82
			c27.5-9.1,56.1-11.6,84.8-11.7c68.6-0.3,137.3-0.3,206,0c29.5,0.1,58.9,2.7,87.3,12c52.1,17.2,84.6,53.5,101.8,104.6
			c7.5,22.3,10.8,45.3,11,68.8c0.5,68.3,0.9,136.6,1,205c0,25.6-0.8,51.3-5.5,76.6c-13.6,72.8-57.8,116.2-128.7,133.6
			c-22.8,5.6-46.1,6.7-69.5,6.9c-33.5,0.3-67,0.1-100.5,0.1C379.6,678.2,379.6,678.5,379.6,678.9z M630,364.1c0-20,0.2-40-0.1-60
			c-0.4-28-1-55.9-5.9-83.6c-7.7-44.4-36.8-81.2-86.2-89.8c-27-4.7-54.3-6.4-81.6-6.7c-47.1-0.5-94.3-0.4-141.5-0.2
			c-30,0.1-59.8,0.7-89.6,5.9c-39.9,7.1-77.2,33.1-87.5,79.6c-5.7,25.6-7.4,51.8-7.7,77.9c-0.6,55.6-1,111.3-0.5,166.9
			c0.2,28.1,1.1,56.2,8.3,83.8c10,38.3,32.5,64.8,70.8,76.1c25.6,7.6,52.2,9.1,78.6,9.6c53.3,1,106.6,0.6,159.9,0.5
			c29.5-0.1,58.9-0.7,88-6.2c43.8-8.3,79.1-37.2,87.6-85.4c5.2-29.8,6.6-59.9,7-90.1C630.3,416.4,630,390.2,630,364.1z"/>
		<path class="st0" d="M630,364.1c0,26.2,0.3,52.3-0.1,78.5c-0.4,30.2-1.7,60.3-7,90.1c-8.5,48.3-43.8,77.2-87.6,85.4
			c-29.2,5.5-58.6,6.1-88,6.2c-53.3,0.1-106.6,0.5-159.9-0.5c-26.4-0.5-53.1-2-78.6-9.6c-38.3-11.4-60.8-37.8-70.8-76.1
			c-7.2-27.6-8.1-55.7-8.3-83.8c-0.4-55.6-0.1-111.3,0.5-166.9c0.3-26.1,2-52.3,7.7-77.9c10.3-46.4,47.6-72.5,87.5-79.6
			c29.7-5.3,59.6-5.8,89.6-5.9c47.2-0.2,94.3-0.3,141.5,0.2c27.3,0.3,54.6,2,81.6,6.7c49.4,8.6,78.5,45.3,86.2,89.8
			c4.8,27.7,5.5,55.6,5.9,83.6C630.3,324.1,630,344.1,630,364.1z M378.3,530.4c87.4,0.1,155.8-68.7,156.7-156.2
			c0.8-82.3-66.8-157.3-156.4-157c-91.3,0.4-156.9,76.5-156.9,156.4C221.5,464.2,297,532,378.3,530.4z M541.8,247.4
			c19,0,36.9-17.7,37.1-36.7c0.1-18.9-17.6-36.9-36.7-37.1c-19.3-0.2-37.2,17.6-37.2,36.9C505,229.7,522.6,247.3,541.8,247.4z"/>
		<path d="M378.3,530.4C297,532,221.5,464.2,221.6,373.7c0.1-79.9,65.6-156,156.9-156.4c89.6-0.4,157.2,74.6,156.4,157
			C534.1,461.7,465.7,530.5,378.3,530.4z M276,374.2c-1.5,57.4,49.9,101.7,102.7,101c56.2-0.8,102-45.4,102.1-101
			c0.1-57-45.4-102.5-102.5-102.4C320.7,271.8,275.9,316.6,276,374.2z"/>
		<path d="M541.8,247.4c-19.2,0-36.8-17.7-36.8-36.8c0-19.4,17.9-37.1,37.2-36.9c19.1,0.2,36.8,18.1,36.7,37.1
			C578.8,229.7,560.8,247.4,541.8,247.4z"/>
		<path class="st0" d="M276,374.2c-0.1-57.5,44.8-102.4,102.3-102.4c57.1,0,102.6,45.5,102.5,102.4c-0.1,55.6-45.8,100.2-102.1,101
			C325.9,475.9,274.4,431.5,276,374.2z"/>
	</g>
</g>
</svg>
