<?xml version="1.0" encoding="utf-8"?>
<!-- Generator: Adobe Illustrator 25.0.1, SVG Export Plug-In . SVG Version: 6.00 Build 0)  -->
<svg version="1.1" id="Layer_1" xmlns="http://www.w3.org/2000/svg" xmlns:xlink="http://www.w3.org/1999/xlink" x="0px" y="0px"
	 viewBox="0 0 607.9 608.8" style="enable-background:new 0 0 607.9 608.8;" xml:space="preserve">
<style type="text/css">
	.st0{fill:#93D9F3;}
</style>
<path class="st0" d="M303.6,608.8c-41.5-0.6-83-0.8-124.4-2c-31.5-1-62.3-6.7-90.6-21.5c-38.4-20.1-63-51.9-76.6-92.6
	C3.7,467.8,0.4,442,0.3,416c-0.4-74.6-0.4-149.3,0-223.9c0.2-29.9,4-59.5,15.2-87.6C34.1,57.4,68.7,27.6,116,11.9
	c27.5-9.1,56.1-11.6,84.8-11.7c68.6-0.3,137.3-0.3,206,0c29.5,0.1,58.9,2.7,87.3,12c52.1,17.2,84.6,53.5,101.8,104.6
	c7.5,22.3,10.8,45.3,11,68.8c0.5,68.3,0.9,136.6,1,205c0,25.6-0.8,51.3-5.5,76.6c-13.6,72.8-57.8,116.2-128.7,133.6
	c-22.8,5.6-46.1,6.7-69.5,6.9c-33.5,0.3-67,0.1-100.5,0.1C303.6,608.1,303.6,608.4,303.6,608.8z M554,294c0-20,0.2-40-0.1-60
	c-0.4-28-1-55.9-5.9-83.6c-7.7-44.4-36.8-81.2-86.2-89.8c-27-4.7-54.3-6.4-81.6-6.7c-47.1-0.5-94.3-0.4-141.5-0.2
	c-30,0.1-59.8,0.7-89.6,5.9c-39.9,7.1-77.2,33.1-87.5,79.6c-5.7,25.6-7.4,51.8-7.7,77.9c-0.6,55.6-1,111.3-0.5,166.9
	c0.2,28.1,1.1,56.2,8.3,83.8c10,38.3,32.5,64.8,70.8,76.1c25.6,7.6,52.2,9.1,78.6,9.6c53.3,1,106.6,0.6,159.9,0.5
	c29.5-0.1,58.9-0.7,88-6.2c43.8-8.3,79.1-37.2,87.6-85.4c5.2-29.8,6.6-59.9,7-90.1C554.3,346.3,554,320.1,554,294z"/>
<path class="st0" d="M302.3,460.3c-81.3,1.6-156.8-66.2-156.7-156.7c0.1-79.9,65.6-156,156.9-156.4c89.6-0.4,157.2,74.6,156.4,157
	C458.1,391.6,389.7,460.4,302.3,460.3z M200,304.1c-1.5,57.4,49.9,101.7,102.7,101c56.2-0.8,102-45.4,102.1-101
	c0.1-57-45.4-102.5-102.5-102.4C244.7,201.7,199.9,246.5,200,304.1z"/>
<path class="st0" d="M465.8,177.3c-19.2,0-36.8-17.7-36.8-36.8c0-19.4,17.9-37.1,37.2-36.9c19.1,0.2,36.8,18.1,36.7,37.1
	C502.8,159.6,484.8,177.3,465.8,177.3z"/>
</svg>
