<?xml version="1.0" encoding="utf-8"?>
<!-- Generator: Adobe Illustrator 25.0.0, SVG Export Plug-In . SVG Version: 6.00 Build 0)  -->
<svg version="1.1" id="Layer_1" xmlns="http://www.w3.org/2000/svg" xmlns:xlink="http://www.w3.org/1999/xlink" x="0px" y="0px"
	 viewBox="0 0 92.54 173.63" style="enable-background:new 0 0 92.54 173.63;" xml:space="preserve">
<style type="text/css">
	.st0{fill:#D4E8C2;stroke:#91D9F4;stroke-width:3;stroke-miterlimit:10;}
</style>
<path class="st0" d="M89.39,66.41c-20,13-22,8-48.16,10.99c5.13-10.89,10.86-21.8,16.15-33.21C63.27,31.5,69.3,18.88,74.36,11.41
	C63.79,21.73,53.19,37.86,41.74,52.64C30.29,67.43,17.98,80.87,3.99,85.78c12.82,5.92,24.26,19.19,34.7,34.16
	c10.44,14.98,19.87,31.67,28.67,44.46l-4-12.5l-4-12.5c-0.32-0.88-0.32-1.63-1.06-4.23c-0.74-2.6-2.23-7.06-5.51-15.35
	c-3.15-7.95-6.03-13.89-8.26-18.03s-3.8-6.48-4.33-7.25c4.19,0.84,7.19,1.86,24.17,4.86c15.81,2.79,25.03,8,25.03,8
	C85.39,87.41,85.39,76.41,89.39,66.41L89.39,66.41z"/>
</svg>
