<?xml version="1.0" encoding="utf-8"?>
<!-- Generator: Adobe Illustrator 25.0.0, SVG Export Plug-In . SVG Version: 6.00 Build 0)  -->
<svg version="1.1" id="Layer_1" xmlns="http://www.w3.org/2000/svg" xmlns:xlink="http://www.w3.org/1999/xlink" x="0px" y="0px"
	 viewBox="0 0 92.5 173.6" style="enable-background:new 0 0 92.5 173.6;" xml:space="preserve">
<style type="text/css">
	.st0{fill:#D4E8C2;stroke:#000000;stroke-width:3;stroke-miterlimit:10;}
</style>
<path class="st0" d="M3.2,66.4c20,13,22,8,48.2,11c-5.1-10.9-10.9-21.8-16.1-33.2c-5.9-12.7-11.9-25.3-17-32.8
	c10.6,10.3,21.2,26.5,32.6,41.2c11.5,14.8,23.8,28.2,37.8,33.1C75.7,91.7,64.3,105,53.9,120c-10.4,15-19.9,31.7-28.7,44.5l4-12.5
	l4-12.5c0.3-0.9,0.3-1.6,1.1-4.2c0.7-2.6,2.2-7.1,5.5-15.3c3.2-7.9,6-13.9,8.3-18c2.2-4.1,3.8-6.5,4.3-7.2
	c-4.2,0.8-7.2,1.9-24.2,4.9c-15.8,2.8-25,8-25,8C7.2,87.4,7.2,76.4,3.2,66.4L3.2,66.4z"/>
</svg>
