<?xml version="1.0" encoding="utf-8"?>
<!-- Generator: Adobe Illustrator 25.0.0, SVG Export Plug-In . SVG Version: 6.00 Build 0)  -->
<svg version="1.1" id="Layer_1" xmlns="http://www.w3.org/2000/svg" xmlns:xlink="http://www.w3.org/1999/xlink" x="0px" y="0px"
	 viewBox="0 0 87.78 159.88" style="enable-background:new 0 0 87.78 159.88;" xml:space="preserve">
<style type="text/css">
	.st0{fill:#D4E8C2;stroke:#000000;stroke-width:3;stroke-miterlimit:10;}
</style>
<path class="st0" d="M1.05,58.8c20,13,22,8,48.16,10.99C44.08,58.9,38.35,48,33.06,36.59C27.17,23.9,21.14,11.28,16.08,3.8
	C26.64,14.12,37.24,30.25,48.7,45.04c11.45,14.78,23.76,28.22,37.75,33.14c-12.82,5.92-24.26,19.19-34.7,34.16
	c-10.44,14.98-19.87,31.67-28.67,44.46l4-12.5l4-12.5c0.32-0.88,0.32-1.63,1.06-4.23c0.74-2.6,2.23-7.06,5.51-15.35
	c3.15-7.95,6.03-13.89,8.26-18.03c2.23-4.14,3.8-6.48,4.33-7.25c-4.19,0.84-7.19,1.86-24.17,4.86c-15.81,2.79-25.03,8-25.03,8
	C5.05,79.8,5.05,68.8,1.05,58.8L1.05,58.8z"/>
</svg>
