<?xml version="1.0" encoding="utf-8"?>
<!-- Generator: Adobe Illustrator 25.0.0, SVG Export Plug-In . SVG Version: 6.00 Build 0)  -->
<svg version="1.1" id="Layer_1" xmlns="http://www.w3.org/2000/svg" xmlns:xlink="http://www.w3.org/1999/xlink" x="0px" y="0px"
	 viewBox="0 0 173.6 92.5" style="enable-background:new 0 0 173.6 92.5;" xml:space="preserve">
<style type="text/css">
	.st0{fill:#F6FFEB;stroke:#91D9F4;stroke-width:3;stroke-miterlimit:10;}
</style>
<path class="st0" d="M107.2,89.4c-13-20-8-22-11-48.2c10.9,5.1,21.8,10.9,33.2,16.1c12.7,5.9,25.3,11.9,32.8,17
	c-10.3-10.6-26.4-21.2-41.2-32.6C106.2,30.3,92.8,18,87.8,4c-5.9,12.8-19.2,24.3-34.2,34.7C38.7,49.1,22,58.6,9.2,67.4l12.5-4
	l12.5-4c0.9-0.3,1.6-0.3,4.2-1.1s7.1-2.2,15.3-5.5c8-3.2,13.9-6,18-8.3s6.5-3.8,7.2-4.3c-0.8,4.2-1.9,7.2-4.9,24.2
	c-2.8,15.8-8,25-8,25C86.2,85.4,97.2,85.4,107.2,89.4L107.2,89.4z"/>
</svg>
