<?xml version="1.0" encoding="utf-8"?>
<!-- Generator: Adobe Illustrator 25.0.0, SVG Export Plug-In . SVG Version: 6.00 Build 0)  -->
<svg version="1.1" id="Layer_1" xmlns="http://www.w3.org/2000/svg" xmlns:xlink="http://www.w3.org/1999/xlink" x="0px" y="0px"
	 viewBox="0 0 173.63 92.54" style="enable-background:new 0 0 173.63 92.54;" xml:space="preserve">
<style type="text/css">
	.st0{fill:#D4E8C2;stroke:#000000;stroke-width:3;stroke-miterlimit:10;}
</style>
<path class="st0" d="M107.22,89.39c-13-20-8-22-10.99-48.16c10.89,5.13,21.8,10.86,33.21,16.15c12.69,5.89,25.31,11.92,32.78,16.98
	c-10.32-10.57-26.45-21.17-41.23-32.62C106.2,30.29,92.76,17.98,87.85,3.99c-5.92,12.82-19.19,24.26-34.16,34.7
	C38.71,49.13,22.02,58.56,9.23,67.36l12.5-4l12.5-4c0.88-0.32,1.63-0.32,4.23-1.06c2.6-0.74,7.06-2.23,15.35-5.51
	c7.95-3.15,13.89-6.03,18.03-8.26s6.48-3.8,7.25-4.33c-0.84,4.19-1.86,7.19-4.86,24.17c-2.79,15.81-8,25.03-8,25.03
	C86.22,85.39,97.22,85.39,107.22,89.39L107.22,89.39z"/>
</svg>
